<?xml version="1.0" encoding="UTF-8" standalone="no"?>
<!-- Created with Inkscape (http://www.inkscape.org/) -->

<svg
   version="1.1"
   id="svg1"
   width="24"
   height="24"
   viewBox="0 0 24 24"
   xmlns="http://www.w3.org/2000/svg"
   xmlns:svg="http://www.w3.org/2000/svg">
  <defs
     id="defs1" />
  <g
     id="g1">
    <path
       style="fill:#000000;stroke-width:0.0702842"
       d="m 0.11512003,23.88355 c 0.0636036,-0.06404 0.13920672,-0.09286 0.16799316,-0.06404 0.0288012,0.0288 -0.0231012,0.0813 -0.115506,0.1164 L -3.8585147e-4,23.99995 Z M 13.626662,21.825687 c -0.786519,-1.182607 -1.409933,-2.170318 -1.385348,-2.194903 0.0246,-0.0246 0.92601,0.249947 2.003198,0.610099 1.077186,0.360137 2.049608,0.654814 2.160928,0.654814 h 0.202404 l 0.342107,-0.378857 c 1.367512,-1.514365 2.447263,-3.523733 2.957829,-5.504345 0.166162,-0.644569 1.312712,-7.5796075 1.312712,-7.9400447 V 6.9293494 h -0.146707 c -0.0807,0 -1.651219,0.3601372 -3.489978,0.8002999 l -3.343211,0.800285 -0.126456,0.160486 c -0.0696,0.0882 -0.897869,2.0375077 -1.840739,4.3316527 l -1.714313,4.171181 -0.359656,0.263671 c -0.9097497,0.666995 -9.70261849,6.26401 -9.75632113,6.210294 -0.0333012,-0.0333 1.90255663,-2.030878 4.30196733,-4.438963 l 4.3625402,-4.378362 0.9055196,-2.624552 c 0.85222,-2.4700797 0.968506,-2.858897 0.85501,-2.858897 -0.0255,0 -1.0973624,0.2530817 -2.3819045,0.5623985 -1.2845269,0.3093325 -2.3593737,0.5624135 -2.3885501,0.5624135 -0.080254,0 -2.8657831,-4.1992316 -2.8657831,-4.3202823 v -0.1053 l 0.117156,0.0441 c 0.064354,0.0243 1.0235744,0.3423471 2.1314678,0.7068943 L 7.4948758,7.4794928 9.6760408,7.0797103 C 10.875694,6.859839 11.896358,6.6407775 11.944196,6.5929123 11.992052,6.5450623 12.103953,6.2321 12.192892,5.897448 L 12.3546,5.2890142 12.350099,4.3985487 12.345599,3.5080682 12.190282,2.9267395 C 11.907353,1.8677629 11.362602,0.84736665 10.747632,0.22442779 10.606925,0.08192683 10.536077,-0.01788377 10.590095,0.00262135 c 0.054,0.02055 1.044815,0.35364216 2.201731,0.74028457 l 2.103491,0.70300948 0.474953,0.4690679 0.474953,0.4690529 0.110556,0.4394877 c 0.170963,0.6792942 0.141156,0.8711303 -0.310996,2.0017924 -0.231881,0.5798587 -0.42161,1.0795717 -0.42161,1.1105019 0,0.1173012 0.535886,0.0354 4.577021,-0.6996643 2.285496,-0.4157427 4.174341,-0.7369846 4.197427,-0.7138845 0.07216,0.07215 -1.837003,10.4711156 -2.08066,11.3331256 -0.875907,3.09878 -2.994309,5.872372 -5.756873,7.537352 -0.334951,0.201871 -0.720484,0.415668 -0.856736,0.475113 L 15.0556,23.97601 Z"
       id="path1" />
  </g>
</svg>
